# xmcd
#
# Track frame offsets:
#	150
#	20801
#	36399
#	50017
#	68509
#	85851
#	103029
#	117803
#	131816
#	147854
#	161055
#	183301
#	196134
#
# Disc length: 2853 seconds
# Revision: 2
# Processed by: cddbd v1.5.2PL0 Copyright (c) Steve Scherf et al.
# Submitted via: dBpowerAMP V12.0
#
DISCID=b70b230d
DTITLE=Bob Walsh - Inside I Am All Blue
DYEAR=2010
DGENRE=Blues
TTITLE0=Never Make Your Move Too Soon
TTITLE1=World War Blues
TTITLE2=Inside I'm All Blue
TTITLE3=Slightly Hung Over
TTITLE4=Nothing Special But the Blues
TTITLE5=Just Look Up
TTITLE6=Crack in the Pavement
TTITLE7=Cancer Ward Blues
TTITLE8=Get Out of My Life
TTITLE9=Sixteen Tons
TTITLE10=Angel
TTITLE11=What've I Been Drinking
TTITLE12=Travelin' Blues
EXTD=
EXTT0=
EXTT1=
EXTT2=
EXTT3=
EXTT4=
EXTT5=
EXTT6=
EXTT7=
EXTT8=
EXTT9=
EXTT10=
EXTT11=
EXTT12=
PLAYORDER=
